<svg width="15" height="4" viewBox="0 0 15 4" fill="none" xmlns="http://www.w3.org/2000/svg">
<path d="M7.5 2.625C7.94873 2.625 8.3125 2.26123 8.3125 1.8125C8.3125 1.36377 7.94873 1 7.5 1C7.05127 1 6.6875 1.36377 6.6875 1.8125C6.6875 2.26123 7.05127 2.625 7.5 2.625Z" stroke="#565059" stroke-width="2" stroke-linecap="round" stroke-linejoin="round"/>
<path d="M13.1875 2.625C13.6362 2.625 14 2.26123 14 1.8125C14 1.36377 13.6362 1 13.1875 1C12.7388 1 12.375 1.36377 12.375 1.8125C12.375 2.26123 12.7388 2.625 13.1875 2.625Z" stroke="#565059" stroke-width="2" stroke-linecap="round" stroke-linejoin="round"/>
<path d="M1.8125 2.625C2.26123 2.625 2.625 2.26123 2.625 1.8125C2.625 1.36377 2.26123 1 1.8125 1C1.36377 1 1 1.36377 1 1.8125C1 2.26123 1.36377 2.625 1.8125 2.625Z" stroke="#565059" stroke-width="2" stroke-linecap="round" stroke-linejoin="round"/>
</svg>
