<svg width="16" height="16" viewBox="0 0 16 16" fill="none" xmlns="http://www.w3.org/2000/svg">
<rect width="16" height="16" fill="url(#paint0_linear)"/>
<path d="M12.075 9.05469H10.0125V16H7.62969V9.05469H6.31719V7.90625L7.62969 7.26562V6.625C7.62969 5.63021 7.87448 4.90365 8.36406 4.44531C8.85365 3.98698 9.6375 3.75781 10.7156 3.75781C11.5385 3.75781 12.2703 3.88021 12.9109 4.125L12.3016 5.875C11.8224 5.72396 11.3797 5.64844 10.9734 5.64844C10.6349 5.64844 10.3901 5.75 10.2391 5.95312C10.088 6.15104 10.0125 6.40625 10.0125 6.71875V7.26562H12.075V9.05469Z" fill="#FBFAF8"/>
<defs>
<linearGradient id="paint0_linear" x1="9.8" y1="5.31253e-07" x2="0.8" y2="16" gradientUnits="userSpaceOnUse">
<stop stop-color="#009FFD" stop-opacity="0.71"/>
<stop offset="0.684806" stop-color="#009FFD"/>
</linearGradient>
</defs>
</svg>
