<svg width="16" height="16" viewBox="0 0 16 16" fill="none" xmlns="http://www.w3.org/2000/svg">
<rect width="16" height="16" rx="8" fill="#1A181B"/>
<path d="M4.57608 8.14653C4.85501 8.1503 5.08557 8.38337 5.08431 8.66042C5.08243 8.945 4.84559 9.17933 4.56226 9.17556C4.2827 9.17179 4.05528 8.93935 4.05591 8.66042C4.05717 8.37143 4.28835 8.14276 4.57608 8.14653Z" fill="white"/>
<path d="M10.7718 8.6516C10.7749 8.37267 11.008 8.14399 11.2869 8.1465C11.5753 8.14839 11.8014 8.37895 11.7976 8.66856C11.7945 8.94812 11.5633 9.17616 11.2838 9.17616C11.0029 9.17554 10.7686 8.93555 10.7718 8.6516Z" fill="white"/>
<path d="M10.4481 8.76129C8.79144 8.76129 7.14486 8.76129 5.48509 8.76129C5.45996 8.45409 5.35882 8.18521 5.09183 8.00742C4.91027 7.88617 4.71049 7.84283 4.49313 7.86984C4.02761 7.92764 3.77004 8.2763 3.75057 8.86557C3.56147 8.97865 3.36609 9.07163 3.19773 9.19979C2.64112 9.6251 2.36282 10.1968 2.35591 10.8979C2.35277 11.2365 2.35528 11.5751 2.35528 11.92C2.20702 11.92 2.0707 11.92 1.91992 11.92C1.94945 11.2798 1.84265 10.6378 2.07509 10.0196C2.29623 9.42846 2.67882 8.97363 3.22851 8.66266C3.29133 8.62685 3.32463 8.5923 3.33594 8.5144C3.41258 8.00491 3.80397 7.59028 4.30466 7.46715C4.34801 7.45647 4.41146 7.4194 4.41774 7.38548C4.50632 6.90991 4.68348 6.47079 4.9354 6.07312C4.77206 5.95439 4.60307 5.85261 4.4592 5.72257C4.12373 5.41851 4.07724 5.02775 4.32476 4.64956C4.48119 4.41021 4.68788 4.22174 4.94608 4.09359C5.26773 3.93464 5.60634 3.97799 5.87585 4.22488C5.96694 4.30844 6.04484 4.40833 6.11709 4.5101C6.18556 4.60684 6.23833 4.71553 6.29801 4.81856C7.36097 4.28331 8.55899 4.27703 9.6364 4.81604C9.71493 4.68789 9.78654 4.55407 9.87324 4.43157C10.2213 3.94218 10.7326 3.86114 11.2057 4.22991C11.3552 4.34613 11.4928 4.48748 11.6027 4.6414C11.8603 5.00137 11.8195 5.40092 11.4966 5.70435C11.3489 5.84319 11.1718 5.95062 11.0028 6.07563C11.2534 6.47141 11.4325 6.90991 11.5173 7.38611C11.523 7.41626 11.572 7.4527 11.6071 7.46149C12.1694 7.61038 12.4998 7.97098 12.6079 8.54078C12.6154 8.58036 12.6519 8.62685 12.6877 8.64758C13.5722 9.16901 14.012 9.94235 14.0126 10.967C14.0126 11.2836 14.0126 11.5996 14.0126 11.9187C13.8643 11.9187 13.728 11.9187 13.581 11.9187C13.581 11.6046 13.5798 11.2974 13.581 10.9896C13.5854 10.019 13.1469 9.32858 12.2649 8.92588C12.1725 8.88379 12.1838 8.82537 12.1845 8.75626C12.1876 8.29263 11.8785 7.92261 11.4425 7.86921C10.9745 7.81204 10.5781 8.09914 10.4832 8.56403C10.4719 8.62622 10.4613 8.68716 10.4481 8.76129ZM4.83362 5.46249C4.81666 5.44364 4.80033 5.42479 4.78337 5.40595C4.75447 5.2558 4.85875 5.18607 4.96304 5.12639C5.08554 5.05602 5.20616 5.08681 5.30982 5.17287C5.38395 5.23444 5.44866 5.30794 5.51525 5.37391C5.65157 5.26397 5.78664 5.15591 5.94872 5.02524C5.83187 4.86693 5.72759 4.69668 5.5944 4.55345C5.45494 4.40393 5.28029 4.38508 5.10942 4.49879C4.96744 4.59365 4.83174 4.70924 4.72369 4.84054C4.53962 5.06294 4.56035 5.21308 4.76452 5.42416C4.78839 5.4361 4.81227 5.44741 4.83614 5.45934C4.95299 5.54667 5.06984 5.63336 5.19297 5.72508C5.25014 5.65724 5.28783 5.612 5.32867 5.56426C5.27904 5.50772 5.2382 5.46123 5.19674 5.41537C5.13643 5.34815 5.08491 5.33621 5.01078 5.4116C4.97246 5.44929 4.89331 5.44678 4.83362 5.46249ZM5.69555 8.01245C5.73261 8.08469 5.7791 8.14437 5.79418 8.21159C5.81931 8.3253 5.88402 8.3385 5.98516 8.33787C6.46764 8.33284 6.95011 8.33598 7.43196 8.33598C8.28069 8.33598 9.12942 8.33598 9.97752 8.3341C10.0209 8.3341 10.0862 8.32467 10.1032 8.29703C10.1541 8.21159 10.1861 8.11422 10.2269 8.01873C9.87701 8.0225 9.7099 7.9113 9.69231 7.66881C9.67849 7.4728 9.82486 7.28622 10.029 7.2724C10.1157 7.26612 10.215 7.29816 10.2923 7.3415C10.4399 7.42443 10.455 7.58149 10.4587 7.72409C10.6686 7.62232 10.8734 7.52306 11.0807 7.42254C10.8162 5.92988 9.41087 4.71741 7.7178 4.85688C5.91229 5.00514 4.96115 6.49843 4.87006 7.42631C5.08177 7.5306 5.28532 7.63111 5.48509 7.72975C5.47504 7.45207 5.62833 7.26235 5.86894 7.26423C6.07562 7.26549 6.2509 7.44767 6.24587 7.65562C6.23896 7.90753 6.05552 8.02941 5.69555 8.01245ZM11.1605 5.41474C11.3395 5.27527 11.3829 5.12136 11.288 4.9486C11.1737 4.74003 11.0053 4.58109 10.7923 4.47492C10.6428 4.40016 10.4977 4.42026 10.3677 4.52706C10.198 4.6659 10.0944 4.84871 10.0127 5.04409C10.1553 5.15843 10.2904 5.26711 10.4273 5.37642C10.5743 5.23758 10.6862 5.01707 10.945 5.11445C11.0687 5.16094 11.1718 5.24261 11.1605 5.41474ZM11.1077 5.49201C11.0342 5.46186 10.9645 5.45369 10.9305 5.41474C10.8545 5.32867 10.7974 5.34941 10.7352 5.42039C10.695 5.46626 10.6554 5.51337 10.6095 5.56614C10.6554 5.61766 10.695 5.66289 10.7383 5.71126C10.8677 5.63462 10.9877 5.563 11.1077 5.49201ZM10.4424 7.75739C10.4456 7.76053 10.4487 7.76304 10.4512 7.76555C10.4537 7.7599 10.4575 7.75488 10.4587 7.74922C10.4594 7.74734 10.4537 7.7442 10.4512 7.74105C10.4487 7.74608 10.4456 7.75173 10.4424 7.75739Z" fill="white"/>
</svg>
