<svg width="61" height="53" viewBox="0 0 61 53" fill="none" xmlns="http://www.w3.org/2000/svg">
<rect width="60.1" height="52.2609" rx="5" fill="#1A181B"/>
<path d="M39.6113 23.4672C33.3472 23.4672 27.121 23.4672 20.8449 23.4672C20.7499 22.3056 20.3675 21.2888 19.3579 20.6166C18.6714 20.1581 17.916 19.9942 17.094 20.0963C15.3338 20.3149 14.3598 21.6333 14.2862 23.8615C13.5712 24.2891 12.8324 24.6407 12.1958 25.1253C10.0911 26.7335 9.03874 28.8952 9.01261 31.5462C9.00073 32.8266 9.01023 34.107 9.01023 35.4112C8.44961 35.4112 7.93413 35.4112 7.36401 35.4112C7.47566 32.9905 7.07183 30.5628 7.95076 28.2253C8.78693 25.9899 10.2336 24.2701 12.3122 23.0942C12.5497 22.9588 12.6756 22.8282 12.7184 22.5336C13.0082 20.6071 14.4881 19.0393 16.3814 18.5737C16.5453 18.5333 16.7852 18.3931 16.809 18.2648C17.1439 16.4666 17.8138 14.8061 18.7664 13.3024C18.1488 12.8535 17.5097 12.4686 16.9658 11.9769C15.6972 10.8272 15.5215 9.34961 16.4574 7.91956C17.0489 7.0145 17.8304 6.30185 18.8068 5.81725C20.023 5.21625 21.3034 5.38016 22.3225 6.31373C22.6669 6.62967 22.9615 7.00737 23.2347 7.3922C23.4936 7.75803 23.6932 8.16899 23.9188 8.55857C27.9382 6.53465 32.4682 6.5109 36.5422 8.54907C36.8391 8.06447 37.1099 7.55849 37.4378 7.09527C38.7538 5.24476 40.6874 4.93832 42.4762 6.33273C43.0416 6.7722 43.5618 7.30669 43.9775 7.88868C44.9515 9.24984 44.797 10.7607 43.576 11.908C43.0178 12.433 42.3479 12.8392 41.7089 13.3119C42.6567 14.8085 43.3337 16.4666 43.6544 18.2672C43.6758 18.3812 43.8611 18.519 43.9941 18.5523C46.1202 19.1153 47.3697 20.4788 47.7783 22.6334C47.8068 22.783 47.9446 22.9588 48.08 23.0372C51.4247 25.0089 53.0875 27.9331 53.0899 31.8075C53.0899 33.0048 53.0899 34.1997 53.0899 35.4064C52.5293 35.4064 52.0138 35.4064 51.4579 35.4064C51.4579 34.2187 51.4532 33.057 51.4579 31.893C51.4746 28.2229 49.8165 25.6122 46.4813 24.0896C46.1321 23.9304 46.1748 23.7095 46.1772 23.4482C46.1891 21.6951 45.0203 20.2959 43.3718 20.094C41.602 19.8778 40.1031 20.9634 39.7444 22.7213C39.7016 22.9564 39.6612 23.1869 39.6113 23.4672ZM18.3816 10.9935C18.3174 10.9222 18.2557 10.8509 18.1915 10.7797C18.0822 10.2119 18.4766 9.94824 18.8709 9.72256C19.3341 9.45651 19.7902 9.57291 20.1822 9.89835C20.4625 10.1311 20.7072 10.4091 20.959 10.6585C21.4744 10.2428 21.9852 9.83421 22.5981 9.34011C22.1562 8.74149 21.7619 8.09773 21.2583 7.55611C20.7309 6.99075 20.0705 6.91948 19.4244 7.34945C18.8875 7.70815 18.3744 8.14524 17.9658 8.64171C17.2698 9.48264 17.3482 10.0504 18.1203 10.8485C18.2105 10.8937 18.3008 10.9364 18.3911 10.9816C18.8329 11.3118 19.2747 11.6396 19.7403 11.9864C19.9565 11.7299 20.099 11.5588 20.2534 11.3783C20.0658 11.1645 19.9114 10.9887 19.7546 10.8153C19.5265 10.5611 19.3318 10.516 19.0514 10.801C18.9065 10.9436 18.6072 10.9341 18.3816 10.9935ZM21.6407 20.6356C21.7809 20.9088 21.9567 21.1344 22.0137 21.3886C22.1087 21.8186 22.3534 21.8685 22.7358 21.8661C24.5602 21.8471 26.3846 21.859 28.2066 21.859C31.4159 21.859 34.6252 21.859 37.8321 21.8518C37.996 21.8518 38.2431 21.8162 38.3072 21.7117C38.4996 21.3886 38.6208 21.0204 38.7752 20.6593C37.452 20.6736 36.8201 20.2531 36.7536 19.3362C36.7014 18.595 37.2549 17.8895 38.0269 17.8373C38.3547 17.8135 38.73 17.9346 39.0222 18.0986C39.5805 18.4121 39.6375 19.006 39.6517 19.5452C40.4451 19.1604 41.2196 18.7851 42.0035 18.405C41.0034 12.7608 35.6894 8.17612 29.2874 8.70348C22.4603 9.26409 18.8638 14.9106 18.5193 18.4192C19.3199 18.8136 20.0895 19.1937 20.8449 19.5666C20.8069 18.5166 21.3866 17.7992 22.2964 17.8064C23.0779 17.8111 23.7407 18.5 23.7217 19.2863C23.6955 20.2389 23.0019 20.6997 21.6407 20.6356ZM42.3052 10.8129C42.9822 10.2856 43.1461 9.70356 42.7874 9.0503C42.355 8.26164 41.7184 7.66064 40.9131 7.25918C40.3477 6.97649 39.799 7.05251 39.3073 7.45634C38.6659 7.98133 38.2739 8.6726 37.9651 9.41137C38.5044 9.84371 39.0151 10.2547 39.533 10.668C40.0888 10.143 40.5117 9.30923 41.4904 9.67743C41.9583 9.85322 42.3479 10.162 42.3052 10.8129ZM42.1056 11.1051C41.8277 10.9911 41.564 10.9602 41.4357 10.8129C41.1483 10.4875 40.9321 10.5659 40.6969 10.8343C40.5449 11.0077 40.3953 11.1859 40.2218 11.3854C40.3953 11.5802 40.5449 11.7512 40.7088 11.9341C41.1982 11.6443 41.6519 11.3735 42.1056 11.1051ZM39.59 19.6711C39.6018 19.683 39.6137 19.6925 39.6232 19.702C39.6327 19.6806 39.647 19.6616 39.6517 19.6403C39.6541 19.6331 39.6327 19.6212 39.6232 19.6094C39.6137 19.6284 39.6018 19.6498 39.59 19.6711Z" fill="white"/>
<path d="M17.5643 21.3771C18.619 21.3914 19.4909 22.2727 19.4861 23.3203C19.479 24.3964 18.5834 25.2824 17.5121 25.2682C16.455 25.2539 15.595 24.375 15.5974 23.3203C15.6022 22.2276 16.4764 21.3629 17.5643 21.3771Z" fill="white"/>
<path d="M40.9916 23.2869C41.0035 22.2322 41.8848 21.3675 42.9395 21.377C44.0298 21.3842 44.885 22.256 44.8708 23.3511C44.8589 24.4082 43.9847 25.2705 42.9276 25.2705C41.8658 25.2681 40.9797 24.3607 40.9916 23.2869Z" fill="white"/>
<path d="M21.6406 20.6355C22.9994 20.6996 23.6954 20.2388 23.7192 19.2814C23.7382 18.4951 23.0754 17.8062 22.2939 17.8015C21.3841 17.7944 20.8044 18.5118 20.8425 19.5617C20.0894 19.1888 19.3174 18.8087 18.5168 18.4144C18.8613 14.9081 22.4578 9.26159 29.285 8.6986C35.6869 8.17124 41.0033 12.7559 42.001 18.4001C41.2194 18.7802 40.445 19.1555 39.6492 19.5404C39.635 19.0011 39.578 18.4072 39.0197 18.0937C38.7276 17.9298 38.3498 17.8086 38.0244 17.8324C37.2524 17.887 36.6989 18.5902 36.7511 19.3313C36.8177 20.2483 37.4495 20.6687 38.7727 20.6545C38.6183 21.0155 38.4971 21.3814 38.3047 21.7068C38.2429 21.8113 37.9935 21.847 37.8296 21.847C34.6203 21.8565 31.4134 21.8541 28.2041 21.8541C26.3797 21.8541 24.5554 21.8422 22.7333 21.8612C22.3509 21.866 22.1038 21.8137 22.0112 21.3837C21.9589 21.1343 21.7808 20.9086 21.6406 20.6355Z" fill="#1A181B"/>
<path d="M18.118 10.8466C17.346 10.0461 17.2676 9.48069 17.9636 8.63977C18.3746 8.14329 18.8853 7.7062 19.4221 7.3475C20.0683 6.91754 20.7287 6.9888 21.256 7.55417C21.762 8.09578 22.1563 8.74192 22.5958 9.33817C21.9829 9.83227 21.4722 10.2409 20.9567 10.6566C20.7049 10.4071 20.4602 10.1292 20.1799 9.89641C19.788 9.57096 19.3319 9.45456 18.8687 9.72062C18.4743 9.94867 18.0776 10.21 18.1893 10.7777C18.1655 10.8015 18.1418 10.8252 18.118 10.8466Z" fill="#FEFEFE"/>
<path d="M42.3054 10.8131C42.3481 10.1622 41.9585 9.85339 41.4906 9.67761C40.5095 9.30941 40.089 10.1408 39.5332 10.6682C39.0153 10.2525 38.5069 9.84389 37.9653 9.41155C38.2741 8.67515 38.6661 7.9815 39.3075 7.45652C39.7992 7.05269 40.348 6.97667 40.9133 7.25935C41.7186 7.66081 42.3529 8.26181 42.7876 9.05048C43.1463 9.70374 42.9824 10.2881 42.3054 10.8131Z" fill="#FEFEFE"/>
<path d="M18.3816 10.9936C18.6096 10.9342 18.909 10.9437 19.0491 10.8012C19.3294 10.5161 19.5242 10.5612 19.7523 10.8154C19.909 10.9888 20.0611 11.1646 20.2511 11.3784C20.0991 11.5589 19.9542 11.7324 19.738 11.9865C19.2724 11.6397 18.8306 11.3095 18.3887 10.9817C18.3887 10.9817 18.3816 10.9936 18.3816 10.9936Z" fill="#FEFEFE"/>
<path d="M42.1054 11.1049C41.6517 11.3734 41.198 11.6442 40.7087 11.9363C40.5447 11.7511 40.3951 11.5824 40.2217 11.3876C40.3951 11.1881 40.5424 11.0099 40.6968 10.8365C40.9343 10.5681 41.1481 10.4873 41.4356 10.8151C41.5638 10.9624 41.8275 10.9909 42.1054 11.1049Z" fill="#FEFEFE"/>
<path d="M18.1916 10.7798C18.2558 10.851 18.3175 10.9223 18.3817 10.9936C18.3817 10.9936 18.3912 10.9817 18.3912 10.9793C18.3009 10.9342 18.2106 10.8914 18.1204 10.8463C18.1417 10.8249 18.1655 10.8012 18.1916 10.7798Z" fill="#FEFEFE"/>
<path d="M39.5901 19.6711C39.602 19.6498 39.6138 19.6284 39.6233 19.6094C39.6328 19.6189 39.6518 19.6331 39.6518 19.6403C39.6471 19.6616 39.6328 19.683 39.6233 19.702C39.6138 19.6925 39.602 19.683 39.5901 19.6711Z" fill="#FEFEFE"/>
<path d="M15.3362 33.1089L12.4025 33.1137L12.4048 35.6079H12.6186C12.9488 35.6079 13.184 35.6863 13.3265 35.8455C13.4691 36.0046 13.5379 36.2137 13.5379 36.4702C13.5379 36.722 13.4691 36.9287 13.3289 37.0879C13.1888 37.247 12.9536 37.3278 12.6234 37.3278L10.9415 37.3302C10.6113 37.3302 10.3762 37.2518 10.2336 37.0926C10.0935 36.9335 10.0222 36.7244 10.0222 36.4679C10.0222 36.1543 10.1315 35.9096 10.35 35.7362C10.4569 35.6459 10.685 35.6032 11.0318 35.6103L11.0223 28.8758C10.78 28.8473 10.5995 28.757 10.4759 28.6002C10.3524 28.4434 10.2906 28.2486 10.2906 28.0135C10.2906 27.7569 10.3595 27.5479 10.4997 27.3887C10.6398 27.2296 10.875 27.1488 11.2052 27.1488L12.6044 27.1559C12.9346 27.1559 13.1697 27.2343 13.3123 27.3911C13.4524 27.5479 13.5237 27.7545 13.5237 28.0111C13.5237 28.2677 13.4548 28.4767 13.3147 28.6359C13.1745 28.795 12.9393 28.8758 12.6091 28.8758H12.3953L12.3977 31.3938L15.3314 31.389L15.3291 28.871H15.1153C14.7851 28.871 14.5499 28.7926 14.4074 28.6335C14.2672 28.4743 14.196 28.2653 14.196 28.0087C14.196 27.7522 14.2648 27.5431 14.405 27.384C14.5452 27.2248 14.7803 27.144 15.1105 27.144L16.5097 27.1512C16.8399 27.1512 17.0751 27.2296 17.2176 27.3863C17.3577 27.5431 17.429 27.7498 17.429 28.0063C17.429 28.2415 17.3672 28.4387 17.2461 28.5955C17.1226 28.7523 16.942 28.8449 16.6997 28.8734L16.7092 35.6079C17.0608 35.6079 17.2889 35.6483 17.3934 35.7338C17.6119 35.9072 17.7212 36.1543 17.7236 36.4726C17.7236 36.7244 17.6547 36.9311 17.5145 37.0902C17.3744 37.2494 17.1392 37.3302 16.809 37.3302L15.1272 37.3325C14.797 37.3325 14.5618 37.2541 14.4193 37.095C14.2791 36.9358 14.2078 36.7268 14.2078 36.4702C14.2078 36.2184 14.2791 36.0118 14.4216 35.8526C14.5642 35.6934 14.7993 35.6127 15.1248 35.6127H15.3386L15.3362 33.1089Z" fill="white"/>
<path d="M22.7454 28.8569L22.7549 35.5915L24.1422 35.5891C24.4724 35.5891 24.7075 35.6675 24.8501 35.8266C24.9926 35.9858 25.0615 36.1948 25.0615 36.4514C25.0615 36.7032 24.9926 36.9099 24.8524 37.069C24.7123 37.2282 24.4771 37.3089 24.1469 37.3089L20.0017 37.3137C19.6715 37.3137 19.4363 37.2353 19.2938 37.0761C19.1536 36.917 19.0824 36.7079 19.0824 36.4514C19.0824 36.1996 19.1513 35.9929 19.2914 35.8338C19.4316 35.6746 19.6667 35.5938 19.9969 35.5938L21.3842 35.5915L21.3747 28.8569L19.9874 28.8593C19.6572 28.8593 19.4221 28.7809 19.2795 28.6218C19.1394 28.4626 19.0681 28.2536 19.0681 27.997C19.0681 27.7405 19.137 27.5314 19.2772 27.3723C19.4173 27.2131 19.6525 27.1323 19.9827 27.1323L24.1279 27.1347C24.4581 27.1347 24.6933 27.2131 24.8358 27.3699C24.976 27.5267 25.0472 27.7333 25.0472 27.9899C25.0472 28.2464 24.9783 28.4555 24.8382 28.6146C24.698 28.7738 24.4629 28.8546 24.1327 28.8546L22.7454 28.8569Z" fill="white"/>
<path d="M29.5014 33.812L29.5038 35.5841L30.891 35.5818C31.2212 35.5818 31.4564 35.6602 31.5989 35.8193C31.7391 35.9785 31.8104 36.1875 31.8104 36.4441C31.8104 36.6959 31.7415 36.9025 31.6013 37.0617C31.4612 37.2209 31.226 37.3016 30.8958 37.3016L27.9217 37.3064C27.5915 37.3064 27.3563 37.228 27.2138 37.0688C27.0736 36.9097 27.0024 36.7006 27.0024 36.4441C27.0024 36.1923 27.0736 35.9856 27.2162 35.8264C27.3587 35.6673 27.5939 35.5865 27.9193 35.5865H28.1331L28.1236 28.852H27.9098C27.5796 28.852 27.3444 28.7736 27.2019 28.6144C27.0617 28.4553 26.9905 28.2462 26.9905 27.9897C26.9905 27.7331 27.0594 27.5241 27.1995 27.3649C27.3397 27.2058 27.5749 27.125 27.905 27.125L31.0668 27.1298C31.9956 27.1274 32.732 27.4457 33.2737 28.0799C33.8176 28.7142 34.0885 29.4886 34.0908 30.4008C34.0908 30.9044 34.0006 31.3795 33.8176 31.8285C33.6799 32.1634 33.4494 32.496 33.1264 32.8238C32.8033 33.1516 32.4731 33.3987 32.1358 33.565C31.7985 33.7312 31.3543 33.8144 30.8008 33.8144L29.5014 33.812ZM29.499 32.0898L30.7723 32.0874C31.3709 32.0874 31.8436 31.9164 32.1952 31.5767C32.5444 31.237 32.7202 30.8308 32.7202 30.3533C32.7202 29.9495 32.5776 29.5979 32.2926 29.2962C32.0075 28.9945 31.6037 28.8449 31.0763 28.8449L29.4966 28.8472L29.499 32.0898Z" fill="white"/>
<path d="M37.7323 33.7998L37.7347 35.5719L39.122 35.5696C39.4522 35.5696 39.6874 35.6479 39.8299 35.8071C39.9724 35.9663 40.0413 36.1753 40.0413 36.4319C40.0413 36.6837 39.9724 36.8903 39.8323 37.0495C39.6921 37.2086 39.4569 37.2894 39.1267 37.2894L36.1526 37.2942C35.8224 37.2942 35.5873 37.2158 35.4447 37.0566C35.3046 36.8975 35.2333 36.6884 35.2333 36.4319C35.2333 36.1801 35.3046 35.9734 35.4471 35.8142C35.5896 35.6551 35.8248 35.5743 36.1503 35.5743H36.364L36.3545 28.8398H36.1408C35.8106 28.8398 35.5754 28.7614 35.4329 28.6022C35.2927 28.4431 35.2214 28.234 35.2214 27.9775C35.2214 27.7209 35.2903 27.5119 35.4305 27.3527C35.5706 27.1936 35.8058 27.1128 36.136 27.1128L39.2978 27.1175C40.2266 27.1152 40.963 27.4335 41.5046 28.0677C42.0486 28.702 42.3194 29.4764 42.3218 30.3886C42.3218 30.8922 42.2315 31.3673 42.0486 31.8163C41.9108 32.1512 41.6804 32.4838 41.3573 32.8116C41.0343 33.1394 40.7041 33.3865 40.3668 33.5528C40.0294 33.719 39.5852 33.8022 39.0317 33.8022L37.7323 33.7998ZM37.73 32.0776L39.0032 32.0752C39.6018 32.0752 40.0746 31.9042 40.4261 31.5645C40.7753 31.2248 40.9511 30.8186 40.9511 30.3411C40.9511 29.9373 40.8086 29.5857 40.5235 29.284C40.2385 28.9823 39.8346 28.8327 39.3073 28.8327L37.7276 28.835L37.73 32.0776Z" fill="white"/>
<path d="M50.6076 32.1872C50.6099 33.7146 50.2227 34.9879 49.4507 36.0046C48.6763 37.0213 47.7807 37.532 46.764 37.532C45.8494 37.5344 45.0228 37.1116 44.284 36.2683C43.3718 35.223 42.9157 33.8666 42.9133 32.1967C42.911 30.5291 43.3647 29.1679 44.2745 28.1132C45.0109 27.2675 45.8352 26.8423 46.7498 26.8423C47.7688 26.8399 48.6644 27.3483 49.4412 28.3626C50.2156 29.3793 50.6052 30.6526 50.6076 32.1872ZM49.2345 32.1895C49.2322 31.1419 48.9804 30.2773 48.4744 29.5907C47.9684 28.9066 47.3959 28.5645 46.7521 28.5645C46.1131 28.5645 45.543 28.9113 45.0394 29.6002C44.5358 30.2891 44.284 31.1538 44.2864 32.1967C44.2888 33.2371 44.5406 34.1018 45.0465 34.7859C45.5525 35.4701 46.1226 35.8122 46.7616 35.8122C47.4054 35.8122 47.9779 35.4701 48.4815 34.7859C48.9851 34.1018 49.2369 33.2371 49.2345 32.1895Z" fill="white"/>
<path d="M19.688 39.6562V39.269C19.688 39.1383 19.7142 39.0433 19.764 38.9863C19.8139 38.9293 19.8804 38.9008 19.9636 38.9008C20.0467 38.9008 20.1132 38.9293 20.1631 38.9863C20.213 39.0433 20.2391 39.1383 20.2391 39.269V40.7988C20.2391 40.9342 20.213 41.0316 20.1631 41.0886C20.1132 41.1456 20.0467 41.1741 19.9636 41.1741C19.8899 41.1741 19.8258 41.148 19.7759 41.0957C19.726 41.0434 19.6952 40.9579 19.688 40.8392C19.6666 40.471 19.4671 40.1455 19.0894 39.8605C18.581 39.4709 18.0038 39.2761 17.3553 39.2761C16.9301 39.2761 16.531 39.3711 16.1533 39.5588C15.873 39.6942 15.6497 39.8605 15.4834 40.0576C15.1936 40.3997 14.9655 40.7774 14.7945 41.1931C14.671 41.4995 14.6116 41.8464 14.6116 42.2312V43.1956C14.6116 44.0176 14.9085 44.7326 15.5048 45.3407C16.101 45.9465 16.7923 46.2505 17.5786 46.2505C18.0513 46.2505 18.4741 46.1484 18.8495 45.9417C19.2248 45.735 19.5859 45.4262 19.9351 45.0081C20.0087 44.9155 20.0919 44.8704 20.1845 44.8704C20.2629 44.8704 20.327 44.8941 20.3745 44.9416C20.4221 44.9891 20.4458 45.0509 20.4458 45.1245C20.4458 45.2243 20.3508 45.3787 20.1631 45.583C19.8044 45.9869 19.4006 46.2885 18.9516 46.4928C18.5027 46.6971 18.0489 46.7993 17.5881 46.7993C17.189 46.7993 16.7852 46.7233 16.3742 46.5688C16.0583 46.4501 15.7993 46.3123 15.5927 46.1555C15.386 45.9987 15.1342 45.7327 14.8349 45.3573C14.5356 44.982 14.3313 44.6376 14.222 44.3193C14.1127 44.0009 14.0581 43.6517 14.0581 43.2717V42.1481C14.0581 41.6064 14.203 41.0506 14.4952 40.4828C14.7874 39.9151 15.1841 39.4804 15.6901 39.1763C16.1961 38.8722 16.7448 38.7202 17.3339 38.7202C18.2485 38.7226 19.0324 39.0338 19.688 39.6562Z" fill="white"/>
<path d="M24.3773 39.452V46.0321H28.0403V43.8395C28.0403 43.7089 28.0664 43.6139 28.1187 43.5568C28.171 43.4998 28.2399 43.4713 28.323 43.4713C28.4014 43.4713 28.4679 43.4998 28.5202 43.5545C28.5724 43.6091 28.5986 43.7041 28.5986 43.8395V46.5832H22.5054C22.3748 46.5832 22.2797 46.5571 22.2227 46.5048C22.1657 46.4526 22.1372 46.3861 22.1372 46.3077C22.1372 46.2245 22.1657 46.158 22.2227 46.1081C22.2797 46.0582 22.3748 46.0321 22.5054 46.0321H23.8191V39.452H22.5054C22.3748 39.452 22.2797 39.4259 22.2227 39.376C22.1657 39.3261 22.1372 39.2596 22.1372 39.1764C22.1372 39.0933 22.1657 39.0268 22.2227 38.9769C22.2797 38.927 22.3748 38.9009 22.5054 38.9009H25.6909C25.8216 38.9009 25.9166 38.927 25.9736 38.9769C26.0306 39.0268 26.0591 39.0933 26.0591 39.1764C26.0591 39.2596 26.0306 39.3261 25.9736 39.376C25.9166 39.4259 25.8216 39.452 25.6909 39.452H24.3773V39.452Z" fill="white"/>
<path d="M36.072 39.4521V44.0605C36.072 44.8349 35.8131 45.4858 35.2976 46.0108C34.7821 46.5358 34.1574 46.7995 33.4257 46.7995C32.9364 46.7995 32.4993 46.6926 32.1192 46.4788C31.7391 46.265 31.4137 45.9395 31.1476 45.5048C30.8816 45.0701 30.7462 44.5879 30.7462 44.0629V39.4544H30.2806C30.1499 39.4544 30.0549 39.4283 29.9979 39.3784C29.9409 39.3285 29.9124 39.262 29.9124 39.1789C29.9124 39.0957 29.9432 39.0268 30.005 38.9698C30.0573 38.9271 30.1499 38.9033 30.2806 38.9033H32.3164C32.447 38.9033 32.542 38.9294 32.599 38.9793C32.656 39.0292 32.6846 39.0957 32.6846 39.1789C32.6846 39.262 32.656 39.3285 32.599 39.3784C32.542 39.4283 32.447 39.4544 32.3164 39.4544H31.2996V44.0629C31.2996 44.671 31.5087 45.1889 31.9244 45.6117C32.3401 46.0369 32.8318 46.2483 33.402 46.2483C33.7654 46.2483 34.098 46.1652 34.3973 45.9989C34.6966 45.8326 34.9603 45.5761 35.186 45.2316C35.4116 44.8848 35.5233 44.4952 35.5233 44.0629V39.4544H34.5066C34.3759 39.4544 34.2809 39.4283 34.2239 39.3784C34.1669 39.3285 34.1384 39.262 34.1384 39.1789C34.1384 39.0957 34.1669 39.0292 34.2239 38.9793C34.2809 38.9294 34.3759 38.9033 34.5066 38.9033H36.5424C36.673 38.9033 36.768 38.9294 36.825 38.9793C36.8821 39.0292 36.9106 39.0957 36.9106 39.1789C36.9106 39.262 36.8821 39.3285 36.825 39.3784C36.768 39.4283 36.673 39.4544 36.5424 39.4544H36.072V39.4521Z" fill="white"/>
<path d="M39.1196 46.0321V39.452H38.3785C38.2478 39.452 38.1528 39.4259 38.0958 39.376C38.0388 39.3261 38.0103 39.2596 38.0103 39.1764C38.0103 39.0933 38.0388 39.0268 38.0958 38.9769C38.1528 38.927 38.2478 38.9009 38.3785 38.9009H41.8467C42.5332 38.9009 43.0938 39.098 43.5238 39.4948C43.9537 39.8915 44.1699 40.3571 44.1699 40.8892C44.1699 41.5638 43.8088 42.1078 43.0867 42.5235C43.6592 42.7302 44.0796 43.0034 44.3481 43.3454C44.6141 43.6875 44.7495 44.0628 44.7495 44.4738C44.7495 44.842 44.6616 45.1769 44.4858 45.481C44.3101 45.7851 44.0416 46.044 43.6806 46.2602C43.3195 46.474 42.9275 46.5809 42.5023 46.5809H38.3785C38.2478 46.5809 38.1528 46.5547 38.0958 46.5025C38.0388 46.4502 38.0103 46.3837 38.0103 46.3053C38.0103 46.2222 38.0388 46.1556 38.0958 46.1058C38.1528 46.0559 38.2478 46.0297 38.3785 46.0297H39.1196V46.0321ZM39.6707 42.3145H41.621C42.0367 42.3145 42.4168 42.2385 42.7636 42.084C43.0297 41.9605 43.2387 41.7847 43.3884 41.5519C43.538 41.3191 43.6117 41.084 43.6117 40.8417C43.6117 40.4948 43.4501 40.1765 43.1247 39.8867C42.8016 39.5945 42.3788 39.4496 41.8586 39.4496H39.6731V42.3145H39.6707ZM39.6707 46.0321H42.4619C42.8159 46.0321 43.1247 45.9537 43.3884 45.7946C43.6521 45.6378 43.8492 45.443 43.987 45.2102C44.1224 44.9774 44.1913 44.7375 44.1913 44.488C44.1913 44.2077 44.0939 43.9369 43.8991 43.6732C43.7043 43.4096 43.4335 43.2124 43.0891 43.0746C42.7422 42.9392 42.2671 42.8703 41.6566 42.8703H39.6731V46.0321H39.6707Z" fill="white"/>
</svg>
