<svg width="41" height="35" viewBox="0 0 41 35" fill="none" xmlns="http://www.w3.org/2000/svg">
<rect width="40.2499" height="34.9999" rx="5" fill="#1A181B"/>
<path d="M26.5282 15.7166C22.3329 15.7166 18.1632 15.7166 13.96 15.7166C13.8964 14.9386 13.6402 14.2577 12.9641 13.8075C12.5043 13.5005 11.9984 13.3907 11.448 13.4591C10.2691 13.6055 9.61685 14.4884 9.56753 15.9807C9.08867 16.267 8.5939 16.5025 8.16754 16.827C6.758 17.9041 6.05323 19.3518 6.03573 21.1272C6.02777 21.9847 6.03414 22.8422 6.03414 23.7156C5.65868 23.7156 5.31346 23.7156 4.93164 23.7156C5.00641 22.0945 4.73596 20.4686 5.32459 18.9032C5.88459 17.4061 6.85345 16.2543 8.24549 15.4668C8.40458 15.3761 8.4889 15.2886 8.51754 15.0914C8.71163 13.8011 9.70276 12.7511 10.9707 12.4393C11.0805 12.4123 11.2412 12.3184 11.2571 12.2325C11.4814 11.0282 11.93 9.91615 12.568 8.90911C12.1543 8.60843 11.7264 8.3507 11.3621 8.02139C10.5125 7.25139 10.3948 6.26185 11.0216 5.30412C11.4178 4.69799 11.9412 4.22072 12.595 3.89617C13.4096 3.49368 14.2671 3.60345 14.9496 4.22867C15.1802 4.44026 15.3775 4.69322 15.5605 4.95094C15.7339 5.19594 15.8675 5.47117 16.0186 5.73208C18.7105 4.37663 21.7443 4.36072 24.4727 5.72571C24.6716 5.40117 24.8529 5.06231 25.0725 4.75208C25.9538 3.51277 27.2488 3.30754 28.4468 4.2414C28.8254 4.53572 29.1738 4.89367 29.4522 5.28344C30.1045 6.19503 30.0011 7.20684 29.1834 7.97525C28.8095 8.32684 28.3609 8.59888 27.9329 8.91547C28.5677 9.91774 29.0211 11.0282 29.2359 12.2341C29.2502 12.3105 29.3743 12.4027 29.4634 12.425C30.8872 12.8021 31.724 13.7152 31.9977 15.1582C32.0168 15.2584 32.109 15.3761 32.1997 15.4286C34.4397 16.7491 35.5534 18.7075 35.5549 21.3022C35.5549 22.1041 35.5549 22.9043 35.5549 23.7125C35.1795 23.7125 34.8343 23.7125 34.462 23.7125C34.462 22.917 34.4588 22.1391 34.462 21.3595C34.4731 18.9016 33.3627 17.1532 31.129 16.1334C30.8952 16.0268 30.9238 15.8789 30.9254 15.7039C30.9334 14.5298 30.1506 13.5927 29.0466 13.4575C27.8613 13.3127 26.8575 14.0398 26.6172 15.217C26.5886 15.3745 26.5616 15.5289 26.5282 15.7166ZM12.3103 7.36275C12.2673 7.31503 12.2259 7.2673 12.183 7.21957C12.1098 6.83934 12.3739 6.66275 12.638 6.51162C12.9482 6.33344 13.2537 6.41139 13.5162 6.62935C13.7039 6.78525 13.8677 6.97139 14.0364 7.13843C14.3816 6.86003 14.7237 6.58639 15.1341 6.25548C14.8382 5.85458 14.5741 5.42344 14.2368 5.06071C13.8837 4.68208 13.4414 4.63435 13.0087 4.92231C12.6491 5.16253 12.3055 5.45526 12.0318 5.78776C11.5657 6.35094 11.6182 6.73116 12.1353 7.26571C12.1957 7.29593 12.2562 7.32457 12.3166 7.3548C12.6125 7.57593 12.9084 7.79548 13.2202 8.02775C13.365 7.85593 13.4605 7.74139 13.5639 7.62048C13.4382 7.4773 13.3348 7.35957 13.2298 7.24343C13.0771 7.07321 12.9466 7.04298 12.7589 7.23389C12.6618 7.32934 12.4614 7.32298 12.3103 7.36275ZM14.493 13.8202C14.5868 14.0032 14.7046 14.1543 14.7427 14.3245C14.8064 14.6125 14.9702 14.6459 15.2264 14.6443C16.4482 14.6316 17.67 14.6395 18.8902 14.6395C21.0395 14.6395 23.1888 14.6395 25.3366 14.6348C25.4463 14.6348 25.6118 14.6109 25.6547 14.5409C25.7836 14.3245 25.8647 14.078 25.9682 13.8361C25.082 13.8457 24.6588 13.5641 24.6143 12.95C24.5793 12.4536 24.95 11.9811 25.467 11.9461C25.6866 11.9302 25.9379 12.0114 26.1336 12.1211C26.5075 12.3311 26.5457 12.7289 26.5552 13.09C27.0866 12.8323 27.6052 12.5809 28.1302 12.3264C27.4604 8.54638 23.9016 5.47594 19.6141 5.82912C15.0418 6.20457 12.6332 9.98615 12.4025 12.3359C12.9387 12.6 13.4541 12.8545 13.96 13.1043C13.9346 12.4011 14.3227 11.9207 14.9321 11.9255C15.4555 11.9286 15.8993 12.39 15.8866 12.9166C15.8691 13.5545 15.4046 13.8632 14.493 13.8202ZM28.3322 7.24184C28.7856 6.88866 28.8954 6.49889 28.6552 6.06139C28.3656 5.53321 27.9393 5.13071 27.4 4.86185C27.0213 4.67253 26.6538 4.72344 26.3245 4.9939C25.895 5.34549 25.6325 5.80844 25.4257 6.30321C25.7868 6.59276 26.1288 6.86798 26.4757 7.1448C26.8479 6.79321 27.1311 6.2348 27.7866 6.48139C28.1 6.59912 28.3609 6.80594 28.3322 7.24184ZM28.1986 7.43752C28.0125 7.36116 27.8359 7.34048 27.75 7.24184C27.5575 7.02389 27.4127 7.07639 27.2552 7.25616C27.1534 7.3723 27.0532 7.49162 26.937 7.62525C27.0532 7.75571 27.1534 7.87025 27.2632 7.99275C27.5909 7.79866 27.8947 7.6173 28.1986 7.43752ZM26.5138 13.1743C26.5218 13.1823 26.5297 13.1886 26.5361 13.195C26.5425 13.1807 26.552 13.168 26.5552 13.1536C26.5568 13.1489 26.5425 13.1409 26.5361 13.133C26.5297 13.1457 26.5218 13.16 26.5138 13.1743Z" fill="white"/>
<path d="M11.7631 14.3165C12.4694 14.3261 13.0533 14.9163 13.0501 15.6179C13.0453 16.3386 12.4456 16.932 11.7281 16.9224C11.0201 16.9129 10.4442 16.3242 10.4458 15.6179C10.449 14.8861 11.0344 14.307 11.7631 14.3165Z" fill="white"/>
<path d="M27.4527 15.5955C27.4607 14.8892 28.0509 14.3101 28.7573 14.3165C29.4875 14.3212 30.0602 14.9051 30.0507 15.6385C30.0427 16.3465 29.4573 16.9239 28.7493 16.9239C28.0382 16.9224 27.4448 16.3146 27.4527 15.5955Z" fill="white"/>
<path d="M14.4932 13.8203C15.4032 13.8633 15.8693 13.5547 15.8852 12.9135C15.8979 12.3869 15.4541 11.9256 14.9307 11.9224C14.3213 11.9176 13.9332 12.3981 13.9586 13.1012C13.4543 12.8515 12.9373 12.5969 12.4011 12.3328C12.6318 9.98467 15.0404 6.20309 19.6127 5.82605C23.9002 5.47287 27.4606 8.54331 28.1288 12.3233C27.6054 12.5778 27.0868 12.8292 26.5538 13.0869C26.5443 12.7258 26.5061 12.3281 26.1322 12.1181C25.9365 12.0083 25.6836 11.9272 25.4656 11.9431C24.9486 11.9797 24.5779 12.4506 24.6129 12.9469C24.6574 13.561 25.0806 13.8426 25.9668 13.8331C25.8633 14.0749 25.7822 14.3199 25.6533 14.5378C25.612 14.6078 25.4449 14.6317 25.3352 14.6317C23.1859 14.6381 21.0381 14.6365 18.8888 14.6365C17.667 14.6365 16.4452 14.6285 15.225 14.6412C14.9688 14.6444 14.8034 14.6094 14.7413 14.3215C14.7063 14.1544 14.587 14.0033 14.4932 13.8203Z" fill="#1A181B"/>
<path d="M12.1339 7.2639C11.6168 6.72777 11.5643 6.34913 12.0305 5.78595C12.3057 5.45345 12.6478 5.16073 13.0073 4.9205C13.44 4.63255 13.8823 4.68027 14.2355 5.05891C14.5743 5.42164 14.8384 5.85436 15.1327 6.25368C14.7223 6.58459 14.3802 6.85822 14.035 7.13663C13.8664 6.96958 13.7025 6.78345 13.5148 6.62754C13.2523 6.40959 12.9468 6.33163 12.6366 6.50981C12.3725 6.66254 12.1068 6.83754 12.1816 7.21777C12.1657 7.23367 12.1498 7.24958 12.1339 7.2639Z" fill="#FEFEFE"/>
<path d="M28.3324 7.24172C28.361 6.80582 28.1001 6.599 27.7867 6.48127C27.1296 6.23468 26.848 6.7915 26.4758 7.14468C26.129 6.86627 25.7885 6.59263 25.4258 6.30309C25.6326 5.80991 25.8951 5.34537 26.3246 4.99378C26.654 4.72332 27.0215 4.67241 27.4001 4.86173C27.9394 5.13059 28.3642 5.53309 28.6553 6.06127C28.8955 6.49877 28.7858 6.89013 28.3324 7.24172Z" fill="#FEFEFE"/>
<path d="M12.3103 7.36295C12.463 7.32318 12.6635 7.32954 12.7573 7.23409C12.9451 7.04318 13.0755 7.07341 13.2283 7.24363C13.3333 7.35977 13.4351 7.4775 13.5623 7.62068C13.4605 7.74159 13.3635 7.85772 13.2187 8.02795C12.9069 7.79568 12.611 7.57454 12.3151 7.355C12.3151 7.355 12.3103 7.36295 12.3103 7.36295Z" fill="#FEFEFE"/>
<path d="M28.1988 7.43737C27.895 7.61714 27.5911 7.79851 27.2634 7.99419C27.1536 7.8701 27.0534 7.75714 26.9373 7.62669C27.0534 7.49305 27.152 7.37374 27.2554 7.2576C27.4145 7.07783 27.5577 7.02374 27.7502 7.24328C27.8361 7.34192 28.0127 7.36101 28.1988 7.43737Z" fill="#FEFEFE"/>
<path d="M12.1832 7.21924C12.2262 7.26697 12.2675 7.31469 12.3105 7.36242C12.3105 7.36242 12.3169 7.35447 12.3169 7.35287C12.2564 7.32265 12.196 7.29401 12.1355 7.26378C12.1498 7.24947 12.1657 7.23356 12.1832 7.21924Z" fill="#FEFEFE"/>
<path d="M26.5142 13.1742C26.5221 13.1599 26.5301 13.1455 26.5364 13.1328C26.5428 13.1392 26.5555 13.1487 26.5555 13.1535C26.5523 13.1678 26.5428 13.1821 26.5364 13.1949C26.5301 13.1885 26.5221 13.1821 26.5142 13.1742Z" fill="#FEFEFE"/>
<path d="M10.271 22.174L8.30624 22.1771L8.30783 23.8476H8.45102C8.67215 23.8476 8.82965 23.9001 8.9251 24.0067C9.02056 24.1133 9.0667 24.2533 9.0667 24.4251C9.0667 24.5937 9.02056 24.7321 8.9267 24.8387C8.83283 24.9453 8.67533 24.9994 8.4542 24.9994L7.32784 25.001C7.1067 25.001 6.9492 24.9485 6.85375 24.8419C6.75989 24.7353 6.71216 24.5953 6.71216 24.4235C6.71216 24.2135 6.78534 24.0496 6.9317 23.9335C7.00329 23.873 7.15602 23.8444 7.38829 23.8492L7.38193 19.339C7.21966 19.3199 7.09875 19.2594 7.01602 19.1544C6.93329 19.0494 6.89193 18.919 6.89193 18.7615C6.89193 18.5897 6.93807 18.4497 7.03193 18.3431C7.12579 18.2365 7.28329 18.1824 7.50443 18.1824L8.44147 18.1872C8.66261 18.1872 8.8201 18.2397 8.91556 18.3447C9.00942 18.4497 9.05715 18.5881 9.05715 18.7599C9.05715 18.9317 9.01101 19.0717 8.91715 19.1783C8.82329 19.2849 8.66579 19.339 8.44465 19.339H8.30147L8.30306 21.0253L10.2678 21.0221L10.2662 19.3358H10.1231C9.90192 19.3358 9.74442 19.2833 9.64897 19.1767C9.5551 19.0701 9.50738 18.9301 9.50738 18.7583C9.50738 18.5865 9.55351 18.4465 9.64737 18.3399C9.74124 18.2333 9.89874 18.1792 10.1199 18.1792L11.0569 18.184C11.2781 18.184 11.4356 18.2365 11.531 18.3415C11.6249 18.4465 11.6726 18.5849 11.6726 18.7567C11.6726 18.9142 11.6312 19.0462 11.5501 19.1512C11.4674 19.2562 11.3465 19.3183 11.1842 19.3374L11.1906 23.8476C11.426 23.8476 11.5787 23.8746 11.6487 23.9319C11.7951 24.048 11.8683 24.2135 11.8699 24.4267C11.8699 24.5953 11.8237 24.7337 11.7299 24.8403C11.636 24.9469 11.4785 25.001 11.2574 25.001L10.131 25.0026C9.90987 25.0026 9.75237 24.9501 9.65692 24.8435C9.56306 24.7369 9.51533 24.5969 9.51533 24.4251C9.51533 24.2564 9.56306 24.118 9.65851 24.0115C9.75397 23.9049 9.91146 23.8508 10.1294 23.8508H10.2726L10.271 22.174Z" fill="white"/>
<path d="M15.233 19.3259L15.2393 23.8361L16.1684 23.8345C16.3896 23.8345 16.5471 23.887 16.6425 23.9936C16.738 24.1002 16.7841 24.2402 16.7841 24.412C16.7841 24.5806 16.738 24.7191 16.6441 24.8256C16.5502 24.9322 16.3928 24.9863 16.1716 24.9863L13.3955 24.9895C13.1744 24.9895 13.0169 24.937 12.9214 24.8304C12.8275 24.7238 12.7798 24.5838 12.7798 24.412C12.7798 24.2434 12.8259 24.105 12.9198 23.9984C13.0137 23.8918 13.1712 23.8377 13.3923 23.8377L14.3214 23.8361L14.315 19.3259L13.3859 19.3275C13.1648 19.3275 13.0073 19.275 12.9119 19.1684C12.818 19.0618 12.7703 18.9218 12.7703 18.75C12.7703 18.5782 12.8164 18.4382 12.9103 18.3316C13.0041 18.225 13.1616 18.1709 13.3828 18.1709L16.1589 18.1725C16.38 18.1725 16.5375 18.225 16.633 18.33C16.7268 18.435 16.7746 18.5734 16.7746 18.7452C16.7746 18.917 16.7284 19.057 16.6346 19.1636C16.5407 19.2702 16.3832 19.3243 16.1621 19.3243L15.233 19.3259Z" fill="white"/>
<path d="M19.7575 22.6449L19.7591 23.8317L20.6882 23.8301C20.9093 23.8301 21.0668 23.8826 21.1623 23.9892C21.2561 24.0958 21.3039 24.2358 21.3039 24.4076C21.3039 24.5763 21.2577 24.7147 21.1639 24.8213C21.07 24.9278 20.9125 24.9819 20.6914 24.9819L18.6996 24.9851C18.4784 24.9851 18.3209 24.9326 18.2255 24.826C18.1316 24.7194 18.0839 24.5794 18.0839 24.4076C18.0839 24.239 18.1316 24.1006 18.2271 23.994C18.3225 23.8874 18.48 23.8333 18.698 23.8333H18.8412L18.8348 19.3231H18.6916C18.4705 19.3231 18.313 19.2706 18.2175 19.164C18.1237 19.0574 18.0759 18.9174 18.0759 18.7456C18.0759 18.5738 18.1221 18.4338 18.2159 18.3272C18.3098 18.2206 18.4673 18.1665 18.6884 18.1665L20.8059 18.1697C21.428 18.1681 21.9211 18.3813 22.2839 18.806C22.6482 19.2308 22.8295 19.7495 22.8311 20.3604C22.8311 20.6976 22.7707 21.0158 22.6482 21.3165C22.5559 21.5408 22.4016 21.7635 22.1852 21.9831C21.9689 22.2026 21.7477 22.3681 21.5218 22.4794C21.2959 22.5908 20.9984 22.6465 20.6277 22.6465L19.7575 22.6449ZM19.7559 21.4915L20.6086 21.4899C21.0096 21.4899 21.3261 21.3754 21.5616 21.1479C21.7955 20.9204 21.9132 20.6483 21.9132 20.3285C21.9132 20.0581 21.8177 19.8226 21.6268 19.6206C21.4359 19.4185 21.1655 19.3183 20.8123 19.3183L19.7543 19.3199L19.7559 21.4915Z" fill="white"/>
<path d="M25.2702 22.6366L25.2718 23.8234L26.2009 23.8218C26.422 23.8218 26.5795 23.8743 26.675 23.9809C26.7704 24.0875 26.8166 24.2275 26.8166 24.3993C26.8166 24.568 26.7704 24.7064 26.6766 24.813C26.5827 24.9195 26.4252 24.9736 26.2041 24.9736L24.2123 24.9768C23.9911 24.9768 23.8336 24.9243 23.7382 24.8177C23.6443 24.7111 23.5966 24.5711 23.5966 24.3993C23.5966 24.2307 23.6443 24.0923 23.7398 23.9857C23.8352 23.8791 23.9927 23.825 24.2107 23.825H24.3538L24.3475 19.3148H24.2043C23.9832 19.3148 23.8257 19.2623 23.7302 19.1557C23.6364 19.0491 23.5886 18.9091 23.5886 18.7373C23.5886 18.5655 23.6348 18.4255 23.7286 18.3189C23.8225 18.2123 23.98 18.1582 24.2011 18.1582L26.3186 18.1614C26.9407 18.1598 27.4338 18.373 27.7966 18.7977C28.1609 19.2225 28.3422 19.7412 28.3438 20.3521C28.3438 20.6893 28.2834 21.0075 28.1609 21.3082C28.0686 21.5325 27.9143 21.7552 27.6979 21.9748C27.4816 22.1943 27.2604 22.3598 27.0345 22.4711C26.8086 22.5825 26.5111 22.6382 26.1404 22.6382L25.2702 22.6366ZM25.2686 21.4832L26.1213 21.4816C26.5222 21.4816 26.8388 21.3671 27.0743 21.1396C27.3082 20.9121 27.4259 20.64 27.4259 20.3202C27.4259 20.0498 27.3304 19.8143 27.1395 19.6123C26.9486 19.4102 26.6782 19.31 26.325 19.31L25.267 19.3116L25.2686 21.4832Z" fill="white"/>
<path d="M33.8927 21.5566C33.8943 22.5795 33.635 23.4323 33.1179 24.1132C32.5993 24.7941 31.9995 25.1361 31.3186 25.1361C30.7061 25.1377 30.1525 24.8545 29.6577 24.2898C29.0468 23.5898 28.7413 22.6814 28.7398 21.563C28.7382 20.4461 29.042 19.5346 29.6513 18.8282C30.1445 18.2618 30.6966 17.9771 31.3091 17.9771C31.9916 17.9755 32.5913 18.3159 33.1116 18.9952C33.6302 19.6761 33.8911 20.5289 33.8927 21.5566ZM32.9731 21.5582C32.9716 20.8566 32.8029 20.2775 32.4641 19.8177C32.1252 19.3596 31.7418 19.1305 31.3107 19.1305C30.8827 19.1305 30.5009 19.3627 30.1636 19.8241C29.8263 20.2855 29.6577 20.8645 29.6593 21.563C29.6609 22.2598 29.8295 22.8389 30.1684 23.297C30.5072 23.7552 30.8891 23.9843 31.317 23.9843C31.7481 23.9843 32.1316 23.7552 32.4688 23.297C32.8061 22.8389 32.9747 22.2598 32.9731 21.5582Z" fill="white"/>
<path d="M13.1855 26.5585V26.2991C13.1855 26.2116 13.203 26.148 13.2364 26.1098C13.2698 26.0716 13.3143 26.0525 13.37 26.0525C13.4257 26.0525 13.4703 26.0716 13.5037 26.1098C13.5371 26.148 13.5546 26.2116 13.5546 26.2991V27.3237C13.5546 27.4144 13.5371 27.4796 13.5037 27.5178C13.4703 27.556 13.4257 27.575 13.37 27.575C13.3207 27.575 13.2778 27.5575 13.2443 27.5225C13.2109 27.4875 13.1903 27.4303 13.1855 27.3507C13.1712 27.1041 13.0375 26.8862 12.7846 26.6953C12.4441 26.4344 12.0575 26.3039 11.6232 26.3039C11.3384 26.3039 11.0712 26.3675 10.8182 26.4932C10.6305 26.5839 10.4809 26.6953 10.3696 26.8273C10.1755 27.0564 10.0228 27.3094 9.90822 27.5878C9.82549 27.793 9.78572 28.0253 9.78572 28.283V28.9289C9.78572 29.4794 9.98458 29.9582 10.3839 30.3655C10.7832 30.7712 11.2462 30.9748 11.7728 30.9748C12.0893 30.9748 12.3725 30.9064 12.6239 30.768C12.8753 30.6296 13.1171 30.4228 13.3509 30.1428C13.4003 30.0807 13.4559 30.0505 13.518 30.0505C13.5705 30.0505 13.6134 30.0664 13.6453 30.0982C13.6771 30.13 13.693 30.1714 13.693 30.2207C13.693 30.2875 13.6293 30.3909 13.5037 30.5278C13.2634 30.7982 12.993 31.0003 12.6923 31.1371C12.3916 31.2739 12.0878 31.3423 11.7791 31.3423C11.5118 31.3423 11.2414 31.2914 10.9662 31.188C10.7546 31.1084 10.5812 31.0162 10.4428 30.9112C10.3044 30.8062 10.1357 30.628 9.93526 30.3766C9.73481 30.1253 9.59799 29.8946 9.52481 29.6814C9.45163 29.4682 9.41504 29.2344 9.41504 28.9798V28.2273C9.41504 27.8646 9.51208 27.4923 9.70777 27.1121C9.90345 26.7319 10.1691 26.4407 10.508 26.2371C10.8469 26.0335 11.2144 25.9316 11.6089 25.9316C12.2214 25.9332 12.7464 26.1416 13.1855 26.5585Z" fill="white"/>
<path d="M16.3257 26.4213V30.8281H18.7788V29.3597C18.7788 29.2722 18.7963 29.2086 18.8313 29.1704C18.8663 29.1322 18.9125 29.1131 18.9682 29.1131C19.0207 29.1131 19.0652 29.1322 19.1002 29.1688C19.1352 29.2054 19.1527 29.2691 19.1527 29.3597V31.1972H15.072C14.9845 31.1972 14.9209 31.1797 14.8827 31.1447C14.8445 31.1097 14.8254 31.0652 14.8254 31.0127C14.8254 30.957 14.8445 30.9125 14.8827 30.879C14.9209 30.8456 14.9845 30.8281 15.072 30.8281H15.9518V26.4213H15.072C14.9845 26.4213 14.9209 26.4038 14.8827 26.3704C14.8445 26.337 14.8254 26.2925 14.8254 26.2368C14.8254 26.1811 14.8445 26.1366 14.8827 26.1032C14.9209 26.0697 14.9845 26.0522 15.072 26.0522H17.2054C17.2929 26.0522 17.3566 26.0697 17.3947 26.1032C17.4329 26.1366 17.452 26.1811 17.452 26.2368C17.452 26.2925 17.4329 26.337 17.3947 26.3704C17.3566 26.4038 17.2929 26.4213 17.2054 26.4213H16.3257V26.4213Z" fill="white"/>
<path d="M24.1579 26.4217V29.508C24.1579 30.0267 23.9845 30.4626 23.6393 30.8142C23.2941 31.1658 22.8757 31.3424 22.3857 31.3424C22.0579 31.3424 21.7652 31.2708 21.5107 31.1276C21.2561 30.9844 21.0382 30.7665 20.86 30.4753C20.6818 30.1842 20.5911 29.8612 20.5911 29.5096V26.4233H20.2793C20.1918 26.4233 20.1282 26.4058 20.09 26.3724C20.0518 26.339 20.0327 26.2944 20.0327 26.2387C20.0327 26.1831 20.0534 26.1369 20.0948 26.0987C20.1298 26.0701 20.1918 26.0542 20.2793 26.0542H21.6427C21.7302 26.0542 21.7938 26.0717 21.832 26.1051C21.8702 26.1385 21.8893 26.1831 21.8893 26.2387C21.8893 26.2944 21.8702 26.339 21.832 26.3724C21.7938 26.4058 21.7302 26.4233 21.6427 26.4233H20.9618V29.5096C20.9618 29.9169 21.1018 30.2637 21.3802 30.5469C21.6586 30.8317 21.9879 30.9733 22.3698 30.9733C22.6132 30.9733 22.8359 30.9176 23.0363 30.8062C23.2368 30.6949 23.4134 30.523 23.5645 30.2924C23.7157 30.0601 23.7904 29.7992 23.7904 29.5096V26.4233H23.1095C23.022 26.4233 22.9584 26.4058 22.9202 26.3724C22.882 26.339 22.8629 26.2944 22.8629 26.2387C22.8629 26.1831 22.882 26.1385 22.9202 26.1051C22.9584 26.0717 23.022 26.0542 23.1095 26.0542H24.4729C24.5604 26.0542 24.6241 26.0717 24.6622 26.1051C24.7004 26.1385 24.7195 26.1831 24.7195 26.2387C24.7195 26.2944 24.7004 26.339 24.6622 26.3724C24.6241 26.4058 24.5604 26.4233 24.4729 26.4233H24.1579V26.4217Z" fill="white"/>
<path d="M26.199 30.8281V26.4213H25.7026C25.6151 26.4213 25.5515 26.4038 25.5133 26.3704C25.4751 26.337 25.4561 26.2925 25.4561 26.2368C25.4561 26.1811 25.4751 26.1366 25.5133 26.1032C25.5515 26.0697 25.6151 26.0522 25.7026 26.0522H28.0254C28.4851 26.0522 28.8606 26.1843 29.1485 26.45C29.4365 26.7157 29.5813 27.0275 29.5813 27.3838C29.5813 27.8357 29.3394 28.2 28.8558 28.4784C29.2392 28.6168 29.5208 28.7997 29.7006 29.0288C29.8788 29.2579 29.9694 29.5093 29.9694 29.7845C29.9694 30.0311 29.9106 30.2554 29.7929 30.459C29.6751 30.6627 29.4954 30.8361 29.2535 30.9809C29.0117 31.124 28.7492 31.1956 28.4645 31.1956H25.7026C25.6151 31.1956 25.5515 31.1781 25.5133 31.1431C25.4751 31.1081 25.4561 31.0636 25.4561 31.0111C25.4561 30.9554 25.4751 30.9109 25.5133 30.8775C25.5515 30.844 25.6151 30.8265 25.7026 30.8265H26.199V30.8281ZM26.5681 28.3384H27.8742C28.1526 28.3384 28.4072 28.2875 28.6395 28.1841C28.8176 28.1013 28.9576 27.9836 29.0579 27.8277C29.1581 27.6718 29.2074 27.5143 29.2074 27.352C29.2074 27.1197 29.0992 26.9066 28.8813 26.7125C28.6649 26.5168 28.3817 26.4197 28.0333 26.4197H26.5697V28.3384H26.5681ZM26.5681 30.8281H28.4374C28.6745 30.8281 28.8813 30.7756 29.0579 30.669C29.2345 30.564 29.3665 30.4336 29.4588 30.2777C29.5494 30.1218 29.5956 29.9611 29.5956 29.7941C29.5956 29.6063 29.5304 29.425 29.3999 29.2484C29.2694 29.0718 29.0881 28.9397 28.8574 28.8475C28.6251 28.7568 28.307 28.7106 27.8981 28.7106H26.5697V30.8281H26.5681Z" fill="white"/>
</svg>
